<mxfile host="Electron" agent="Mozilla/5.0 (Windows NT 10.0; Win64; x64) AppleWebKit/537.36 (KHTML, like Gecko) draw.io/24.7.17 Chrome/128.0.6613.36 Electron/32.0.1 Safari/537.36" version="24.7.17">
  <diagram name="Страница — 1" id="VB6_wOk49vUx24yTtQGh">
    <mxGraphModel dx="1235" dy="740" grid="0" gridSize="10" guides="1" tooltips="1" connect="1" arrows="1" fold="1" page="0" pageScale="1" pageWidth="827" pageHeight="1169" math="0" shadow="0">
      <root>
        <mxCell id="0" />
        <mxCell id="1" parent="0" />
        <mxCell id="mWOute00-UQlCNgB34TM-15" value="" style="edgeStyle=orthogonalEdgeStyle;rounded=0;orthogonalLoop=1;jettySize=auto;html=1;endArrow=none;endFill=0;entryX=0;entryY=0;entryDx=102.5;entryDy=365;entryPerimeter=0;" parent="1" source="MCeAE_PEQeaNxHBy2OWm-10" target="mWOute00-UQlCNgB34TM-9" edge="1">
          <mxGeometry relative="1" as="geometry">
            <mxPoint x="804" y="64" as="sourcePoint" />
            <mxPoint x="766" y="66" as="targetPoint" />
          </mxGeometry>
        </mxCell>
        <mxCell id="mWOute00-UQlCNgB34TM-16" value="HTTPS" style="edgeLabel;html=1;align=center;verticalAlign=middle;resizable=0;points=[];" parent="mWOute00-UQlCNgB34TM-15" vertex="1" connectable="0">
          <mxGeometry x="-0.1281" y="1" relative="1" as="geometry">
            <mxPoint x="28" y="-95" as="offset" />
          </mxGeometry>
        </mxCell>
        <mxCell id="mWOute00-UQlCNgB34TM-23" style="edgeStyle=orthogonalEdgeStyle;rounded=0;orthogonalLoop=1;jettySize=auto;html=1;endArrow=none;endFill=0;" parent="1" source="mWOute00-UQlCNgB34TM-9" target="mWOute00-UQlCNgB34TM-17" edge="1">
          <mxGeometry relative="1" as="geometry" />
        </mxCell>
        <mxCell id="mWOute00-UQlCNgB34TM-9" value="&amp;lt;&amp;lt;device&amp;gt;&amp;gt;" style="verticalAlign=top;align=left;spacingTop=8;spacingLeft=2;spacingRight=12;shape=cube;size=10;direction=south;fontStyle=4;html=1;whiteSpace=wrap;" parent="1" vertex="1">
          <mxGeometry x="864" y="56" width="365" height="497" as="geometry" />
        </mxCell>
        <mxCell id="mWOute00-UQlCNgB34TM-10" value="Server" style="text;html=1;align=center;verticalAlign=middle;resizable=0;points=[];autosize=1;strokeColor=none;fillColor=none;" parent="1" vertex="1">
          <mxGeometry x="864" y="83" width="53" height="26" as="geometry" />
        </mxCell>
        <mxCell id="mWOute00-UQlCNgB34TM-17" value="&amp;lt;&amp;lt;device&amp;gt;&amp;gt;" style="verticalAlign=top;align=left;spacingTop=8;spacingLeft=2;spacingRight=12;shape=cube;size=10;direction=south;fontStyle=4;html=1;whiteSpace=wrap;" parent="1" vertex="1">
          <mxGeometry x="864" y="328" width="365" height="202" as="geometry" />
        </mxCell>
        <mxCell id="mWOute00-UQlCNgB34TM-18" value="DB server" style="text;html=1;align=center;verticalAlign=middle;resizable=0;points=[];autosize=1;strokeColor=none;fillColor=none;" parent="1" vertex="1">
          <mxGeometry x="862" y="360" width="71" height="26" as="geometry" />
        </mxCell>
        <mxCell id="mWOute00-UQlCNgB34TM-19" value="&amp;lt;&amp;lt;execution environment&amp;gt;&amp;gt;" style="verticalAlign=top;align=left;spacingTop=8;spacingLeft=2;spacingRight=12;shape=cube;size=10;direction=south;fontStyle=4;html=1;whiteSpace=wrap;" parent="1" vertex="1">
          <mxGeometry x="924" y="386" width="239" height="98" as="geometry" />
        </mxCell>
        <mxCell id="mWOute00-UQlCNgB34TM-20" value="PostgreSQL" style="text;html=1;align=center;verticalAlign=middle;resizable=0;points=[];autosize=1;strokeColor=none;fillColor=none;" parent="1" vertex="1">
          <mxGeometry x="922" y="422" width="83" height="26" as="geometry" />
        </mxCell>
        <mxCell id="mWOute00-UQlCNgB34TM-24" value="TCP/IP protocol" style="text;html=1;align=center;verticalAlign=middle;resizable=0;points=[];autosize=1;strokeColor=none;fillColor=none;" parent="1" vertex="1">
          <mxGeometry x="943" y="275" width="102" height="26" as="geometry" />
        </mxCell>
        <mxCell id="MCeAE_PEQeaNxHBy2OWm-1" value="&lt;p style=&quot;margin:0px;margin-top:6px;text-align:center;&quot;&gt;&lt;b&gt;Component&lt;/b&gt;&lt;/p&gt;&lt;hr&gt;&lt;p style=&quot;margin:0px;margin-left:8px;&quot;&gt;&lt;span style=&quot;white-space: pre;&quot;&gt;&#x9;&lt;/span&gt;Instance&lt;/p&gt;" style="align=left;overflow=fill;html=1;dropTarget=0;whiteSpace=wrap;" parent="1" vertex="1">
          <mxGeometry x="1377" y="356" width="129" height="63" as="geometry" />
        </mxCell>
        <mxCell id="MCeAE_PEQeaNxHBy2OWm-2" value="" style="shape=component;jettyWidth=8;jettyHeight=4;" parent="MCeAE_PEQeaNxHBy2OWm-1" vertex="1">
          <mxGeometry x="1" width="20" height="20" relative="1" as="geometry">
            <mxPoint x="-24" y="4" as="offset" />
          </mxGeometry>
        </mxCell>
        <mxCell id="MCeAE_PEQeaNxHBy2OWm-8" value="" style="group" parent="1" vertex="1" connectable="0">
          <mxGeometry x="66" y="316" width="366" height="207" as="geometry" />
        </mxCell>
        <mxCell id="MCeAE_PEQeaNxHBy2OWm-3" value="&amp;lt;&amp;lt;device&amp;gt;&amp;gt;" style="verticalAlign=top;align=left;spacingTop=8;spacingLeft=2;spacingRight=12;shape=cube;size=10;direction=south;fontStyle=4;html=1;whiteSpace=wrap;" parent="MCeAE_PEQeaNxHBy2OWm-8" vertex="1">
          <mxGeometry x="1" width="365" height="207" as="geometry" />
        </mxCell>
        <mxCell id="MCeAE_PEQeaNxHBy2OWm-4" value="Phone" style="text;html=1;align=center;verticalAlign=middle;resizable=0;points=[];autosize=1;strokeColor=none;fillColor=none;" parent="MCeAE_PEQeaNxHBy2OWm-8" vertex="1">
          <mxGeometry y="27" width="53" height="26" as="geometry" />
        </mxCell>
        <mxCell id="MCeAE_PEQeaNxHBy2OWm-5" value="&amp;lt;&amp;lt;execution environment&amp;gt;&amp;gt;" style="verticalAlign=top;align=left;spacingTop=8;spacingLeft=2;spacingRight=12;shape=cube;size=10;direction=south;fontStyle=4;html=1;whiteSpace=wrap;" parent="MCeAE_PEQeaNxHBy2OWm-8" vertex="1">
          <mxGeometry x="72" y="65" width="239" height="91" as="geometry" />
        </mxCell>
        <mxCell id="MCeAE_PEQeaNxHBy2OWm-6" value="Android / IOS" style="text;html=1;align=center;verticalAlign=middle;resizable=0;points=[];autosize=1;strokeColor=none;fillColor=none;" parent="MCeAE_PEQeaNxHBy2OWm-8" vertex="1">
          <mxGeometry x="78" y="97" width="90" height="26" as="geometry" />
        </mxCell>
        <mxCell id="MCeAE_PEQeaNxHBy2OWm-9" value="" style="group" parent="1" vertex="1" connectable="0">
          <mxGeometry x="74" y="64" width="365" height="200" as="geometry" />
        </mxCell>
        <mxCell id="mWOute00-UQlCNgB34TM-1" value="&amp;lt;&amp;lt;device&amp;gt;&amp;gt;" style="verticalAlign=top;align=left;spacingTop=8;spacingLeft=2;spacingRight=12;shape=cube;size=10;direction=south;fontStyle=4;html=1;whiteSpace=wrap;" parent="MCeAE_PEQeaNxHBy2OWm-9" vertex="1">
          <mxGeometry width="365" height="200" as="geometry" />
        </mxCell>
        <mxCell id="mWOute00-UQlCNgB34TM-2" value="PC" style="text;html=1;align=center;verticalAlign=middle;resizable=0;points=[];autosize=1;strokeColor=none;fillColor=none;" parent="MCeAE_PEQeaNxHBy2OWm-9" vertex="1">
          <mxGeometry x="1" y="27" width="35" height="26" as="geometry" />
        </mxCell>
        <mxCell id="mWOute00-UQlCNgB34TM-3" value="&amp;lt;&amp;lt;execution environment&amp;gt;&amp;gt;" style="verticalAlign=top;align=left;spacingTop=8;spacingLeft=2;spacingRight=12;shape=cube;size=10;direction=south;fontStyle=4;html=1;whiteSpace=wrap;" parent="MCeAE_PEQeaNxHBy2OWm-9" vertex="1">
          <mxGeometry x="80" y="50" width="239" height="99" as="geometry" />
        </mxCell>
        <mxCell id="mWOute00-UQlCNgB34TM-4" value="ОS Windows / Linux / Mac" style="text;html=1;align=center;verticalAlign=middle;resizable=0;points=[];autosize=1;strokeColor=none;fillColor=none;" parent="MCeAE_PEQeaNxHBy2OWm-9" vertex="1">
          <mxGeometry x="78" y="82" width="159" height="26" as="geometry" />
        </mxCell>
        <mxCell id="MCeAE_PEQeaNxHBy2OWm-12" value="" style="group" parent="1" vertex="1" connectable="0">
          <mxGeometry x="499" y="238" width="245" height="98" as="geometry" />
        </mxCell>
        <mxCell id="MCeAE_PEQeaNxHBy2OWm-10" value="&amp;lt;&amp;lt;browser&amp;gt;&amp;gt;" style="verticalAlign=top;align=left;spacingTop=8;spacingLeft=2;spacingRight=12;shape=cube;size=10;direction=south;fontStyle=4;html=1;whiteSpace=wrap;" parent="MCeAE_PEQeaNxHBy2OWm-12" vertex="1">
          <mxGeometry x="6" width="239" height="98" as="geometry" />
        </mxCell>
        <mxCell id="MCeAE_PEQeaNxHBy2OWm-11" value="Chrome / Firefox / Safari / Opera etc." style="text;html=1;align=center;verticalAlign=middle;resizable=0;points=[];autosize=1;strokeColor=none;fillColor=none;" parent="MCeAE_PEQeaNxHBy2OWm-12" vertex="1">
          <mxGeometry y="32" width="215" height="26" as="geometry" />
        </mxCell>
        <mxCell id="MCeAE_PEQeaNxHBy2OWm-13" value="" style="endArrow=diamondThin;endFill=1;endSize=24;html=1;rounded=0;entryX=0;entryY=0;entryDx=95;entryDy=0;entryPerimeter=0;exitX=0.014;exitY=1.087;exitDx=0;exitDy=0;exitPerimeter=0;edgeStyle=orthogonalEdgeStyle;" parent="1" source="MCeAE_PEQeaNxHBy2OWm-11" target="mWOute00-UQlCNgB34TM-1" edge="1">
          <mxGeometry width="160" relative="1" as="geometry">
            <mxPoint x="538" y="176.88" as="sourcePoint" />
            <mxPoint x="698" y="176.88" as="targetPoint" />
          </mxGeometry>
        </mxCell>
        <mxCell id="MCeAE_PEQeaNxHBy2OWm-14" value="" style="endArrow=diamondThin;endFill=1;endSize=24;html=1;rounded=0;entryX=0.546;entryY=0.001;entryDx=0;entryDy=0;entryPerimeter=0;edgeStyle=orthogonalEdgeStyle;" parent="1" target="MCeAE_PEQeaNxHBy2OWm-3" edge="1">
          <mxGeometry width="160" relative="1" as="geometry">
            <mxPoint x="502" y="299" as="sourcePoint" />
            <mxPoint x="449" y="169" as="targetPoint" />
            <Array as="points">
              <mxPoint x="469" y="298" />
              <mxPoint x="469" y="429" />
            </Array>
          </mxGeometry>
        </mxCell>
        <mxCell id="MCeAE_PEQeaNxHBy2OWm-16" value="" style="group" parent="1" vertex="1" connectable="0">
          <mxGeometry x="941" y="116" width="239" height="84" as="geometry" />
        </mxCell>
        <mxCell id="mWOute00-UQlCNgB34TM-11" value="&amp;lt;&amp;lt;execution environment&amp;gt;&amp;gt;" style="verticalAlign=top;align=left;spacingTop=8;spacingLeft=2;spacingRight=12;shape=cube;size=10;direction=south;fontStyle=4;html=1;whiteSpace=wrap;" parent="MCeAE_PEQeaNxHBy2OWm-16" vertex="1">
          <mxGeometry width="239" height="84" as="geometry" />
        </mxCell>
        <mxCell id="mWOute00-UQlCNgB34TM-12" value="ASP .Net Core" style="text;html=1;align=center;verticalAlign=middle;resizable=0;points=[];autosize=1;strokeColor=none;fillColor=none;" parent="MCeAE_PEQeaNxHBy2OWm-16" vertex="1">
          <mxGeometry x="-1" y="32" width="96" height="26" as="geometry" />
        </mxCell>
        <mxCell id="MCeAE_PEQeaNxHBy2OWm-27" value="" style="edgeStyle=orthogonalEdgeStyle;rounded=0;orthogonalLoop=1;jettySize=auto;html=1;endArrow=none;endFill=0;entryX=0;entryY=0;entryDx=102.5;entryDy=365;entryPerimeter=0;" parent="1" source="MCeAE_PEQeaNxHBy2OWm-45" target="MCeAE_PEQeaNxHBy2OWm-29" edge="1">
          <mxGeometry relative="1" as="geometry">
            <mxPoint x="826" y="714" as="sourcePoint" />
            <mxPoint x="788" y="716" as="targetPoint" />
          </mxGeometry>
        </mxCell>
        <mxCell id="MCeAE_PEQeaNxHBy2OWm-28" value="HTTPS" style="edgeLabel;html=1;align=center;verticalAlign=middle;resizable=0;points=[];" parent="MCeAE_PEQeaNxHBy2OWm-27" vertex="1" connectable="0">
          <mxGeometry x="-0.1281" y="1" relative="1" as="geometry">
            <mxPoint x="22" y="-83" as="offset" />
          </mxGeometry>
        </mxCell>
        <mxCell id="MCeAE_PEQeaNxHBy2OWm-29" value="&amp;lt;&amp;lt;device&amp;gt;&amp;gt;" style="verticalAlign=top;align=left;spacingTop=8;spacingLeft=2;spacingRight=12;shape=cube;size=10;direction=south;fontStyle=4;html=1;whiteSpace=wrap;" parent="1" vertex="1">
          <mxGeometry x="856" y="725" width="365" height="429" as="geometry" />
        </mxCell>
        <mxCell id="MCeAE_PEQeaNxHBy2OWm-30" value="Server" style="text;html=1;align=center;verticalAlign=middle;resizable=0;points=[];autosize=1;strokeColor=none;fillColor=none;" parent="1" vertex="1">
          <mxGeometry x="856" y="752" width="53" height="26" as="geometry" />
        </mxCell>
        <mxCell id="MCeAE_PEQeaNxHBy2OWm-31" value="TCP/IP protocol" style="text;html=1;align=center;verticalAlign=middle;resizable=0;points=[];autosize=1;strokeColor=none;fillColor=none;" parent="1" vertex="1">
          <mxGeometry x="943" y="949" width="102" height="26" as="geometry" />
        </mxCell>
        <mxCell id="MCeAE_PEQeaNxHBy2OWm-34" value="" style="group" parent="1" vertex="1" connectable="0">
          <mxGeometry x="88" y="966" width="366" height="207" as="geometry" />
        </mxCell>
        <mxCell id="MCeAE_PEQeaNxHBy2OWm-35" value="&amp;lt;&amp;lt;device&amp;gt;&amp;gt;" style="verticalAlign=top;align=left;spacingTop=8;spacingLeft=2;spacingRight=12;shape=cube;size=10;direction=south;fontStyle=4;html=1;whiteSpace=wrap;" parent="MCeAE_PEQeaNxHBy2OWm-34" vertex="1">
          <mxGeometry x="1" width="365" height="207" as="geometry" />
        </mxCell>
        <mxCell id="MCeAE_PEQeaNxHBy2OWm-36" value="Phone" style="text;html=1;align=center;verticalAlign=middle;resizable=0;points=[];autosize=1;strokeColor=none;fillColor=none;" parent="MCeAE_PEQeaNxHBy2OWm-34" vertex="1">
          <mxGeometry y="27" width="53" height="26" as="geometry" />
        </mxCell>
        <mxCell id="MCeAE_PEQeaNxHBy2OWm-37" value="&amp;lt;&amp;lt;execution environment&amp;gt;&amp;gt;" style="verticalAlign=top;align=left;spacingTop=8;spacingLeft=2;spacingRight=12;shape=cube;size=10;direction=south;fontStyle=4;html=1;whiteSpace=wrap;" parent="MCeAE_PEQeaNxHBy2OWm-34" vertex="1">
          <mxGeometry x="72" y="65" width="239" height="91" as="geometry" />
        </mxCell>
        <mxCell id="MCeAE_PEQeaNxHBy2OWm-38" value="Android / IOS" style="text;html=1;align=center;verticalAlign=middle;resizable=0;points=[];autosize=1;strokeColor=none;fillColor=none;" parent="MCeAE_PEQeaNxHBy2OWm-34" vertex="1">
          <mxGeometry x="78" y="97" width="90" height="26" as="geometry" />
        </mxCell>
        <mxCell id="MCeAE_PEQeaNxHBy2OWm-39" value="" style="group" parent="1" vertex="1" connectable="0">
          <mxGeometry x="94" y="714" width="365" height="200" as="geometry" />
        </mxCell>
        <mxCell id="MCeAE_PEQeaNxHBy2OWm-40" value="&amp;lt;&amp;lt;device&amp;gt;&amp;gt;" style="verticalAlign=top;align=left;spacingTop=8;spacingLeft=2;spacingRight=12;shape=cube;size=10;direction=south;fontStyle=4;html=1;whiteSpace=wrap;" parent="MCeAE_PEQeaNxHBy2OWm-39" vertex="1">
          <mxGeometry width="365" height="200" as="geometry" />
        </mxCell>
        <mxCell id="MCeAE_PEQeaNxHBy2OWm-41" value="PC" style="text;html=1;align=center;verticalAlign=middle;resizable=0;points=[];autosize=1;strokeColor=none;fillColor=none;" parent="MCeAE_PEQeaNxHBy2OWm-39" vertex="1">
          <mxGeometry x="1" y="27" width="35" height="26" as="geometry" />
        </mxCell>
        <mxCell id="MCeAE_PEQeaNxHBy2OWm-42" value="&amp;lt;&amp;lt;execution environment&amp;gt;&amp;gt;" style="verticalAlign=top;align=left;spacingTop=8;spacingLeft=2;spacingRight=12;shape=cube;size=10;direction=south;fontStyle=4;html=1;whiteSpace=wrap;" parent="MCeAE_PEQeaNxHBy2OWm-39" vertex="1">
          <mxGeometry x="76" y="50" width="239" height="99" as="geometry" />
        </mxCell>
        <mxCell id="MCeAE_PEQeaNxHBy2OWm-43" value="ОS Windows / Linux / Mac" style="text;html=1;align=center;verticalAlign=middle;resizable=0;points=[];autosize=1;strokeColor=none;fillColor=none;" parent="MCeAE_PEQeaNxHBy2OWm-39" vertex="1">
          <mxGeometry x="74" y="82" width="159" height="26" as="geometry" />
        </mxCell>
        <mxCell id="MCeAE_PEQeaNxHBy2OWm-44" value="" style="group" parent="1" vertex="1" connectable="0">
          <mxGeometry x="521" y="888" width="245" height="98" as="geometry" />
        </mxCell>
        <mxCell id="MCeAE_PEQeaNxHBy2OWm-45" value="&amp;lt;&amp;lt;browser&amp;gt;&amp;gt;" style="verticalAlign=top;align=left;spacingTop=8;spacingLeft=2;spacingRight=12;shape=cube;size=10;direction=south;fontStyle=4;html=1;whiteSpace=wrap;" parent="MCeAE_PEQeaNxHBy2OWm-44" vertex="1">
          <mxGeometry x="6" width="239" height="98" as="geometry" />
        </mxCell>
        <mxCell id="MCeAE_PEQeaNxHBy2OWm-46" value="Chrome / Firefox / Safari / Opera etc." style="text;html=1;align=center;verticalAlign=middle;resizable=0;points=[];autosize=1;strokeColor=none;fillColor=none;" parent="MCeAE_PEQeaNxHBy2OWm-44" vertex="1">
          <mxGeometry y="32" width="215" height="26" as="geometry" />
        </mxCell>
        <mxCell id="MCeAE_PEQeaNxHBy2OWm-47" value="" style="endArrow=diamondThin;endFill=1;endSize=24;html=1;rounded=0;entryX=0;entryY=0;entryDx=95;entryDy=0;entryPerimeter=0;exitX=0.014;exitY=1.087;exitDx=0;exitDy=0;exitPerimeter=0;edgeStyle=orthogonalEdgeStyle;" parent="1" source="MCeAE_PEQeaNxHBy2OWm-46" target="MCeAE_PEQeaNxHBy2OWm-40" edge="1">
          <mxGeometry width="160" relative="1" as="geometry">
            <mxPoint x="560" y="826.88" as="sourcePoint" />
            <mxPoint x="720" y="826.88" as="targetPoint" />
          </mxGeometry>
        </mxCell>
        <mxCell id="MCeAE_PEQeaNxHBy2OWm-48" value="" style="endArrow=diamondThin;endFill=1;endSize=24;html=1;rounded=0;entryX=0.546;entryY=0.001;entryDx=0;entryDy=0;entryPerimeter=0;edgeStyle=orthogonalEdgeStyle;" parent="1" target="MCeAE_PEQeaNxHBy2OWm-35" edge="1">
          <mxGeometry width="160" relative="1" as="geometry">
            <mxPoint x="490" y="948" as="sourcePoint" />
            <mxPoint x="471" y="819" as="targetPoint" />
            <Array as="points">
              <mxPoint x="490" y="1079" />
            </Array>
          </mxGeometry>
        </mxCell>
        <mxCell id="MCeAE_PEQeaNxHBy2OWm-49" value="" style="group" parent="1" vertex="1" connectable="0">
          <mxGeometry x="915" y="785" width="239" height="149" as="geometry" />
        </mxCell>
        <mxCell id="MCeAE_PEQeaNxHBy2OWm-50" value="&amp;lt;&amp;lt;execution environment&amp;gt;&amp;gt;" style="verticalAlign=top;align=left;spacingTop=8;spacingLeft=2;spacingRight=12;shape=cube;size=10;direction=south;fontStyle=4;html=1;whiteSpace=wrap;" parent="MCeAE_PEQeaNxHBy2OWm-49" vertex="1">
          <mxGeometry width="239" height="149" as="geometry" />
        </mxCell>
        <mxCell id="MCeAE_PEQeaNxHBy2OWm-51" value="ASP .Net Core" style="text;html=1;align=center;verticalAlign=middle;resizable=0;points=[];autosize=1;strokeColor=none;fillColor=none;" parent="MCeAE_PEQeaNxHBy2OWm-49" vertex="1">
          <mxGeometry x="-1" y="29.841269841269842" width="96" height="26" as="geometry" />
        </mxCell>
        <mxCell id="MCeAE_PEQeaNxHBy2OWm-52" value="" style="shape=cylinder3;whiteSpace=wrap;html=1;boundedLbl=1;backgroundOutline=1;size=15;" parent="1" vertex="1">
          <mxGeometry x="960" y="989" width="162" height="149" as="geometry" />
        </mxCell>
        <mxCell id="MCeAE_PEQeaNxHBy2OWm-53" value="&amp;lt;&amp;lt;execution environment&amp;gt;&amp;gt;" style="text;html=1;align=center;verticalAlign=middle;resizable=0;points=[];autosize=1;strokeColor=none;fillColor=none;fontStyle=4" parent="1" vertex="1">
          <mxGeometry x="960" y="1025" width="167" height="26" as="geometry" />
        </mxCell>
        <mxCell id="MCeAE_PEQeaNxHBy2OWm-55" value="" style="endArrow=none;html=1;rounded=0;entryX=1.014;entryY=0.472;entryDx=0;entryDy=0;entryPerimeter=0;exitX=0.5;exitY=0;exitDx=0;exitDy=0;exitPerimeter=0;" parent="1" source="MCeAE_PEQeaNxHBy2OWm-52" target="MCeAE_PEQeaNxHBy2OWm-50" edge="1">
          <mxGeometry width="50" height="50" relative="1" as="geometry">
            <mxPoint x="1015" y="987" as="sourcePoint" />
            <mxPoint x="1065" y="937" as="targetPoint" />
          </mxGeometry>
        </mxCell>
        <mxCell id="MCeAE_PEQeaNxHBy2OWm-57" value="&lt;p style=&quot;margin:0px;margin-top:6px;text-align:center;&quot;&gt;&lt;b&gt;&amp;lt;&amp;lt;application&amp;gt;&amp;gt;&lt;/b&gt;&lt;/p&gt;&lt;hr&gt;&lt;p style=&quot;margin:0px;margin-left:8px;&quot;&gt;&lt;span style=&quot;white-space: pre;&quot;&gt;&#x9;&lt;/span&gt;Program.cs&lt;/p&gt;" style="align=left;overflow=fill;html=1;dropTarget=0;whiteSpace=wrap;" parent="1" vertex="1">
          <mxGeometry x="950.5" y="847.8571428571429" width="164" height="74.5" as="geometry" />
        </mxCell>
        <mxCell id="MCeAE_PEQeaNxHBy2OWm-58" value="" style="shape=component;jettyWidth=8;jettyHeight=4;" parent="MCeAE_PEQeaNxHBy2OWm-57" vertex="1">
          <mxGeometry x="1" width="20" height="20" relative="1" as="geometry">
            <mxPoint x="-24" y="4" as="offset" />
          </mxGeometry>
        </mxCell>
        <mxCell id="MCeAE_PEQeaNxHBy2OWm-62" value="" style="group" parent="1" vertex="1" connectable="0">
          <mxGeometry x="1059" y="1655.997142857143" width="164" height="74.5" as="geometry" />
        </mxCell>
        <mxCell id="MCeAE_PEQeaNxHBy2OWm-59" value="&lt;p style=&quot;margin:0px;margin-top:6px;text-align:center;&quot;&gt;&lt;br&gt;&lt;/p&gt;" style="align=left;overflow=fill;html=1;dropTarget=0;whiteSpace=wrap;" parent="MCeAE_PEQeaNxHBy2OWm-62" vertex="1">
          <mxGeometry width="164" height="74.5" as="geometry" />
        </mxCell>
        <mxCell id="MCeAE_PEQeaNxHBy2OWm-60" value="" style="shape=component;jettyWidth=8;jettyHeight=4;" parent="MCeAE_PEQeaNxHBy2OWm-59" vertex="1">
          <mxGeometry x="1" width="20" height="20" relative="1" as="geometry">
            <mxPoint x="-24" y="4" as="offset" />
          </mxGeometry>
        </mxCell>
        <mxCell id="MCeAE_PEQeaNxHBy2OWm-61" value="Контекст базы данных" style="text;html=1;align=center;verticalAlign=middle;resizable=0;points=[];autosize=1;strokeColor=none;fillColor=none;" parent="MCeAE_PEQeaNxHBy2OWm-62" vertex="1">
          <mxGeometry x="8" y="24.25285714285701" width="143" height="26" as="geometry" />
        </mxCell>
        <mxCell id="MCeAE_PEQeaNxHBy2OWm-64" value="" style="group" parent="1" vertex="1" connectable="0">
          <mxGeometry x="527" y="1952.997142857143" width="164" height="74.5" as="geometry" />
        </mxCell>
        <mxCell id="MCeAE_PEQeaNxHBy2OWm-65" value="&lt;p style=&quot;margin:0px;margin-top:6px;text-align:center;&quot;&gt;&lt;br&gt;&lt;/p&gt;" style="align=left;overflow=fill;html=1;dropTarget=0;whiteSpace=wrap;" parent="MCeAE_PEQeaNxHBy2OWm-64" vertex="1">
          <mxGeometry width="164" height="74.5" as="geometry" />
        </mxCell>
        <mxCell id="MCeAE_PEQeaNxHBy2OWm-66" value="" style="shape=component;jettyWidth=8;jettyHeight=4;" parent="MCeAE_PEQeaNxHBy2OWm-65" vertex="1">
          <mxGeometry x="1" width="20" height="20" relative="1" as="geometry">
            <mxPoint x="-24" y="4" as="offset" />
          </mxGeometry>
        </mxCell>
        <mxCell id="MCeAE_PEQeaNxHBy2OWm-67" value="База данных" style="text;html=1;align=center;verticalAlign=middle;resizable=0;points=[];autosize=1;strokeColor=none;fillColor=none;" parent="MCeAE_PEQeaNxHBy2OWm-64" vertex="1">
          <mxGeometry x="35" y="24.25285714285701" width="89" height="26" as="geometry" />
        </mxCell>
        <mxCell id="MCeAE_PEQeaNxHBy2OWm-68" value="" style="group" parent="1" vertex="1" connectable="0">
          <mxGeometry x="1316" y="1783.997142857143" width="178" height="74.5" as="geometry" />
        </mxCell>
        <mxCell id="MCeAE_PEQeaNxHBy2OWm-69" value="&lt;p style=&quot;margin:0px;margin-top:6px;text-align:center;&quot;&gt;&lt;br&gt;&lt;/p&gt;" style="align=left;overflow=fill;html=1;dropTarget=0;whiteSpace=wrap;" parent="MCeAE_PEQeaNxHBy2OWm-68" vertex="1">
          <mxGeometry width="164" height="74.5" as="geometry" />
        </mxCell>
        <mxCell id="MCeAE_PEQeaNxHBy2OWm-70" value="" style="shape=component;jettyWidth=8;jettyHeight=4;" parent="MCeAE_PEQeaNxHBy2OWm-69" vertex="1">
          <mxGeometry x="1" width="20" height="20" relative="1" as="geometry">
            <mxPoint x="-24" y="4" as="offset" />
          </mxGeometry>
        </mxCell>
        <mxCell id="MCeAE_PEQeaNxHBy2OWm-71" value="Система управления &lt;br&gt;контентом" style="text;html=1;align=center;verticalAlign=middle;resizable=0;points=[];autosize=1;strokeColor=none;fillColor=none;" parent="MCeAE_PEQeaNxHBy2OWm-68" vertex="1">
          <mxGeometry x="13" y="17.25285714285701" width="135" height="41" as="geometry" />
        </mxCell>
        <mxCell id="MCeAE_PEQeaNxHBy2OWm-72" value="" style="group" parent="1" vertex="1" connectable="0">
          <mxGeometry x="793" y="1920.997142857143" width="164" height="74.5" as="geometry" />
        </mxCell>
        <mxCell id="MCeAE_PEQeaNxHBy2OWm-73" value="&lt;p style=&quot;margin:0px;margin-top:6px;text-align:center;&quot;&gt;&lt;br&gt;&lt;/p&gt;" style="align=left;overflow=fill;html=1;dropTarget=0;whiteSpace=wrap;" parent="MCeAE_PEQeaNxHBy2OWm-72" vertex="1">
          <mxGeometry width="164" height="74.5" as="geometry" />
        </mxCell>
        <mxCell id="MCeAE_PEQeaNxHBy2OWm-74" value="" style="shape=component;jettyWidth=8;jettyHeight=4;" parent="MCeAE_PEQeaNxHBy2OWm-73" vertex="1">
          <mxGeometry x="1" width="20" height="20" relative="1" as="geometry">
            <mxPoint x="-24" y="4" as="offset" />
          </mxGeometry>
        </mxCell>
        <mxCell id="MCeAE_PEQeaNxHBy2OWm-75" value="Контроллер" style="text;html=1;align=center;verticalAlign=middle;resizable=0;points=[];autosize=1;strokeColor=none;fillColor=none;" parent="MCeAE_PEQeaNxHBy2OWm-72" vertex="1">
          <mxGeometry x="38" y="24.25285714285701" width="84" height="26" as="geometry" />
        </mxCell>
        <mxCell id="MCeAE_PEQeaNxHBy2OWm-76" value="" style="group" parent="1" vertex="1" connectable="0">
          <mxGeometry x="530" y="1787.997142857143" width="164" height="74.5" as="geometry" />
        </mxCell>
        <mxCell id="MCeAE_PEQeaNxHBy2OWm-77" value="&lt;p style=&quot;margin:0px;margin-top:6px;text-align:center;&quot;&gt;&lt;br&gt;&lt;/p&gt;" style="align=left;overflow=fill;html=1;dropTarget=0;whiteSpace=wrap;" parent="MCeAE_PEQeaNxHBy2OWm-76" vertex="1">
          <mxGeometry width="164" height="74.5" as="geometry" />
        </mxCell>
        <mxCell id="MCeAE_PEQeaNxHBy2OWm-78" value="" style="shape=component;jettyWidth=8;jettyHeight=4;" parent="MCeAE_PEQeaNxHBy2OWm-77" vertex="1">
          <mxGeometry x="1" width="20" height="20" relative="1" as="geometry">
            <mxPoint x="-24" y="4" as="offset" />
          </mxGeometry>
        </mxCell>
        <mxCell id="MCeAE_PEQeaNxHBy2OWm-79" value="Сервер" style="text;html=1;align=center;verticalAlign=middle;resizable=0;points=[];autosize=1;strokeColor=none;fillColor=none;" parent="MCeAE_PEQeaNxHBy2OWm-76" vertex="1">
          <mxGeometry x="50" y="24.25285714285701" width="60" height="26" as="geometry" />
        </mxCell>
        <mxCell id="MCeAE_PEQeaNxHBy2OWm-80" value="" style="group" parent="1" vertex="1" connectable="0">
          <mxGeometry x="1057" y="1783.997142857143" width="164" height="74.5" as="geometry" />
        </mxCell>
        <mxCell id="MCeAE_PEQeaNxHBy2OWm-81" value="&lt;p style=&quot;margin:0px;margin-top:6px;text-align:center;&quot;&gt;&lt;br&gt;&lt;/p&gt;" style="align=left;overflow=fill;html=1;dropTarget=0;whiteSpace=wrap;" parent="MCeAE_PEQeaNxHBy2OWm-80" vertex="1">
          <mxGeometry width="164" height="74.5" as="geometry" />
        </mxCell>
        <mxCell id="MCeAE_PEQeaNxHBy2OWm-82" value="" style="shape=component;jettyWidth=8;jettyHeight=4;" parent="MCeAE_PEQeaNxHBy2OWm-81" vertex="1">
          <mxGeometry x="1" width="20" height="20" relative="1" as="geometry">
            <mxPoint x="-24" y="4" as="offset" />
          </mxGeometry>
        </mxCell>
        <mxCell id="MCeAE_PEQeaNxHBy2OWm-83" value="Клиентское приложение" style="text;html=1;align=center;verticalAlign=middle;resizable=0;points=[];autosize=1;strokeColor=none;fillColor=none;" parent="MCeAE_PEQeaNxHBy2OWm-80" vertex="1">
          <mxGeometry x="3" y="24.25285714285701" width="154" height="26" as="geometry" />
        </mxCell>
        <mxCell id="MCeAE_PEQeaNxHBy2OWm-84" value="" style="group" parent="1" vertex="1" connectable="0">
          <mxGeometry x="796" y="1784.997142857143" width="164" height="74.5" as="geometry" />
        </mxCell>
        <mxCell id="MCeAE_PEQeaNxHBy2OWm-85" value="&lt;p style=&quot;margin:0px;margin-top:6px;text-align:center;&quot;&gt;&lt;br&gt;&lt;/p&gt;" style="align=left;overflow=fill;html=1;dropTarget=0;whiteSpace=wrap;" parent="MCeAE_PEQeaNxHBy2OWm-84" vertex="1">
          <mxGeometry y="3" width="164" height="74.5" as="geometry" />
        </mxCell>
        <mxCell id="MCeAE_PEQeaNxHBy2OWm-86" value="" style="shape=component;jettyWidth=8;jettyHeight=4;" parent="MCeAE_PEQeaNxHBy2OWm-85" vertex="1">
          <mxGeometry x="1" width="20" height="20" relative="1" as="geometry">
            <mxPoint x="-24" y="4" as="offset" />
          </mxGeometry>
        </mxCell>
        <mxCell id="MCeAE_PEQeaNxHBy2OWm-87" value="Представление" style="text;html=1;align=center;verticalAlign=middle;resizable=0;points=[];autosize=1;strokeColor=none;fillColor=none;" parent="MCeAE_PEQeaNxHBy2OWm-84" vertex="1">
          <mxGeometry x="27" y="25.25285714285701" width="105" height="26" as="geometry" />
        </mxCell>
        <mxCell id="MCeAE_PEQeaNxHBy2OWm-88" value="" style="group" parent="1" vertex="1" connectable="0">
          <mxGeometry x="795" y="1656.997142857143" width="164" height="74.5" as="geometry" />
        </mxCell>
        <mxCell id="MCeAE_PEQeaNxHBy2OWm-89" value="&lt;p style=&quot;margin:0px;margin-top:6px;text-align:center;&quot;&gt;&lt;br&gt;&lt;/p&gt;" style="align=left;overflow=fill;html=1;dropTarget=0;whiteSpace=wrap;" parent="MCeAE_PEQeaNxHBy2OWm-88" vertex="1">
          <mxGeometry width="164" height="74.5" as="geometry" />
        </mxCell>
        <mxCell id="MCeAE_PEQeaNxHBy2OWm-90" value="" style="shape=component;jettyWidth=8;jettyHeight=4;" parent="MCeAE_PEQeaNxHBy2OWm-89" vertex="1">
          <mxGeometry x="1" width="20" height="20" relative="1" as="geometry">
            <mxPoint x="-24" y="4" as="offset" />
          </mxGeometry>
        </mxCell>
        <mxCell id="MCeAE_PEQeaNxHBy2OWm-91" value="Модель данных" style="text;html=1;align=center;verticalAlign=middle;resizable=0;points=[];autosize=1;strokeColor=none;fillColor=none;" parent="MCeAE_PEQeaNxHBy2OWm-88" vertex="1">
          <mxGeometry x="27" y="24.25285714285701" width="106" height="26" as="geometry" />
        </mxCell>
        <mxCell id="MCeAE_PEQeaNxHBy2OWm-92" value="PostgreSQL" style="text;html=1;align=center;verticalAlign=middle;resizable=0;points=[];autosize=1;strokeColor=none;fillColor=none;" parent="1" vertex="1">
          <mxGeometry x="997" y="1070" width="83" height="26" as="geometry" />
        </mxCell>
        <mxCell id="MCeAE_PEQeaNxHBy2OWm-94" value="" style="html=1;verticalAlign=bottom;endArrow=open;dashed=1;endSize=8;curved=0;rounded=0;exitX=0;exitY=0.5;exitDx=0;exitDy=0;entryX=1.003;entryY=0.529;entryDx=0;entryDy=0;entryPerimeter=0;" parent="1" source="MCeAE_PEQeaNxHBy2OWm-69" target="MCeAE_PEQeaNxHBy2OWm-81" edge="1">
          <mxGeometry relative="1" as="geometry">
            <mxPoint x="1272" y="1848" as="sourcePoint" />
            <mxPoint x="1223" y="1827" as="targetPoint" />
          </mxGeometry>
        </mxCell>
        <mxCell id="MCeAE_PEQeaNxHBy2OWm-95" value="" style="html=1;verticalAlign=bottom;endArrow=open;dashed=1;endSize=8;curved=0;rounded=0;entryX=0;entryY=0.5;entryDx=0;entryDy=0;exitX=1;exitY=0.5;exitDx=0;exitDy=0;" parent="1" source="MCeAE_PEQeaNxHBy2OWm-89" target="MCeAE_PEQeaNxHBy2OWm-59" edge="1">
          <mxGeometry relative="1" as="geometry">
            <mxPoint x="960" y="1700" as="sourcePoint" />
            <mxPoint x="1057" y="1700" as="targetPoint" />
          </mxGeometry>
        </mxCell>
        <mxCell id="MCeAE_PEQeaNxHBy2OWm-96" value="" style="html=1;verticalAlign=bottom;endArrow=open;dashed=1;endSize=8;curved=0;rounded=0;exitX=1;exitY=0.5;exitDx=0;exitDy=0;" parent="1" source="MCeAE_PEQeaNxHBy2OWm-77" edge="1">
          <mxGeometry relative="1" as="geometry">
            <mxPoint x="706" y="1825.72" as="sourcePoint" />
            <mxPoint x="797" y="1825" as="targetPoint" />
          </mxGeometry>
        </mxCell>
        <mxCell id="MCeAE_PEQeaNxHBy2OWm-97" value="" style="html=1;verticalAlign=bottom;endArrow=open;dashed=1;endSize=8;curved=0;rounded=0;exitX=1;exitY=0.5;exitDx=0;exitDy=0;entryX=0;entryY=0.5;entryDx=0;entryDy=0;" parent="1" source="MCeAE_PEQeaNxHBy2OWm-77" target="MCeAE_PEQeaNxHBy2OWm-73" edge="1">
          <mxGeometry relative="1" as="geometry">
            <mxPoint x="704" y="1835" as="sourcePoint" />
            <mxPoint x="807" y="1835" as="targetPoint" />
          </mxGeometry>
        </mxCell>
        <mxCell id="MCeAE_PEQeaNxHBy2OWm-98" value="" style="html=1;verticalAlign=bottom;endArrow=open;dashed=1;endSize=8;curved=0;rounded=0;exitX=1;exitY=0.5;exitDx=0;exitDy=0;entryX=0.007;entryY=0.443;entryDx=0;entryDy=0;entryPerimeter=0;" parent="1" source="MCeAE_PEQeaNxHBy2OWm-77" target="MCeAE_PEQeaNxHBy2OWm-89" edge="1">
          <mxGeometry relative="1" as="geometry">
            <mxPoint x="704" y="1835" as="sourcePoint" />
            <mxPoint x="803" y="1968" as="targetPoint" />
          </mxGeometry>
        </mxCell>
        <mxCell id="MCeAE_PEQeaNxHBy2OWm-105" value="" style="rounded=0;orthogonalLoop=1;jettySize=auto;html=1;endArrow=halfCircle;endFill=0;endSize=6;strokeWidth=1;sketch=0;exitX=0.5;exitY=1;exitDx=0;exitDy=0;" parent="1" edge="1">
          <mxGeometry relative="1" as="geometry">
            <mxPoint x="611" y="1862.497142857143" as="sourcePoint" />
            <mxPoint x="612" y="1901" as="targetPoint" />
          </mxGeometry>
        </mxCell>
        <mxCell id="MCeAE_PEQeaNxHBy2OWm-106" value="" style="rounded=0;orthogonalLoop=1;jettySize=auto;html=1;endArrow=oval;endFill=0;sketch=0;sourcePerimeterSpacing=0;targetPerimeterSpacing=0;endSize=10;" parent="1" edge="1">
          <mxGeometry relative="1" as="geometry">
            <mxPoint x="612" y="1952" as="sourcePoint" />
            <mxPoint x="612" y="1903" as="targetPoint" />
          </mxGeometry>
        </mxCell>
        <mxCell id="MCeAE_PEQeaNxHBy2OWm-107" value="" style="ellipse;whiteSpace=wrap;html=1;align=center;aspect=fixed;fillColor=none;strokeColor=none;resizable=0;perimeter=centerPerimeter;rotatable=0;allowArrows=0;points=[];outlineConnect=1;" parent="1" vertex="1">
          <mxGeometry x="957" y="1845" width="10" height="10" as="geometry" />
        </mxCell>
        <mxCell id="MCeAE_PEQeaNxHBy2OWm-110" value="" style="html=1;verticalAlign=bottom;endArrow=open;dashed=1;endSize=8;curved=0;rounded=0;entryX=0.005;entryY=0.573;entryDx=0;entryDy=0;exitX=1;exitY=0.5;exitDx=0;exitDy=0;entryPerimeter=0;" parent="1" source="MCeAE_PEQeaNxHBy2OWm-85" target="MCeAE_PEQeaNxHBy2OWm-83" edge="1">
          <mxGeometry relative="1" as="geometry">
            <mxPoint x="959" y="1825" as="sourcePoint" />
            <mxPoint x="1015" y="1824.89" as="targetPoint" />
          </mxGeometry>
        </mxCell>
        <mxCell id="MCeAE_PEQeaNxHBy2OWm-111" value="" style="html=1;verticalAlign=bottom;endArrow=open;dashed=1;endSize=8;curved=0;rounded=0;entryX=0.5;entryY=1;entryDx=0;entryDy=0;" parent="1" target="MCeAE_PEQeaNxHBy2OWm-85" edge="1">
          <mxGeometry relative="1" as="geometry">
            <mxPoint x="877" y="1920" as="sourcePoint" />
            <mxPoint x="1069" y="1703" as="targetPoint" />
          </mxGeometry>
        </mxCell>
        <mxCell id="MCeAE_PEQeaNxHBy2OWm-112" value="" style="html=1;verticalAlign=bottom;endArrow=open;dashed=1;endSize=8;curved=0;rounded=0;entryX=0.5;entryY=0;entryDx=0;entryDy=0;exitX=0.5;exitY=1;exitDx=0;exitDy=0;" parent="1" source="MCeAE_PEQeaNxHBy2OWm-89" target="MCeAE_PEQeaNxHBy2OWm-85" edge="1">
          <mxGeometry relative="1" as="geometry">
            <mxPoint x="887" y="1930" as="sourcePoint" />
            <mxPoint x="888" y="1872" as="targetPoint" />
          </mxGeometry>
        </mxCell>
      </root>
    </mxGraphModel>
  </diagram>
</mxfile>
